<svg width="27" height="27" viewBox="0 0 27 27" fill="none" xmlns="http://www.w3.org/2000/svg">
<g clip-path="url(#clip0_652_17453)">
<path d="M18.5642 0.81543C18.6248 0.81543 18.6853 0.81543 18.7492 0.81543C18.8976 2.649 18.1978 4.01905 17.3472 5.01119C16.5126 5.99648 15.3698 6.95208 13.5213 6.80709C13.398 4.99977 14.099 3.73134 14.9485 2.74148C15.7362 1.81899 17.1805 0.998102 18.5642 0.81543Z" fill="white"/>
<path d="M24.1597 19.9C24.1597 19.9183 24.1597 19.9343 24.1597 19.9514C23.6403 21.5247 22.8993 22.873 21.9951 24.1243C21.1696 25.2603 20.1581 26.789 18.3519 26.789C16.7912 26.789 15.7545 25.7855 14.155 25.7581C12.463 25.7307 11.5325 26.5972 9.98549 26.8153C9.80852 26.8153 9.63156 26.8153 9.45802 26.8153C8.32203 26.6509 7.40524 25.7512 6.73734 24.9406C4.7679 22.5453 3.24601 19.4513 2.96287 15.4919C2.96287 15.1037 2.96287 14.7167 2.96287 14.3285C3.08275 11.4948 4.45964 9.19083 6.28979 8.07425C7.25567 7.48056 8.58347 6.97479 10.062 7.20085C10.6956 7.29903 11.343 7.51596 11.9104 7.7306C12.4481 7.93725 13.1206 8.30373 13.7577 8.28432C14.1892 8.27176 14.6185 8.04685 15.0535 7.88815C16.3276 7.42805 17.5767 6.90058 19.223 7.14833C21.2016 7.44745 22.6059 8.32657 23.4736 9.68291C21.7998 10.7481 20.4766 12.3534 20.7027 15.0946C20.9036 17.5846 22.3513 19.0414 24.1597 19.9Z" fill="white"/>
</g>
<defs>
<clipPath id="clip0_652_17453">
<rect width="26" height="26" fill="white" transform="translate(0.56073 0.81543)"/>
</clipPath>
</defs>
</svg>
