<svg width="31" height="27" viewBox="0 0 31 27" fill="none" xmlns="http://www.w3.org/2000/svg">
  <path fill-rule="evenodd" clip-rule="evenodd" d="M28.0853 9.73978L16.205 1.92491C15.6583 1.61601 14.9841 1.61601 14.4375 1.92491L1.98862 10.0629C0.778714 10.7446 0.0316451 12.0015 0.0280008 13.3649L-0.00115967 24.7908C-0.00115967 25.9376 0.950005 26.8679 2.12346 26.8679H16.0009V21.7088C16.0009 19.9726 17.3238 18.4671 19.0985 18.2967C21.1393 18.1014 22.874 19.6779 22.874 21.6307V26.8679H27.4986C28.8871 26.8679 30.0132 25.7743 30.0168 24.4179L30.046 13.0596C30.046 11.6891 29.3025 10.425 28.0853 9.73978Z" fill="#F0AA1E"/>
  <path fill-rule="evenodd" clip-rule="evenodd" d="M16.4216 10.7942L23.5548 1.8885C24.4322 0.857435 25.7911 0.278233 27.2275 0.4713C27.8641 0.557564 28.4477 0.783494 28.9496 1.11212C28.162 1.16141 27.505 1.76115 27.3989 2.5745C27.3622 2.85794 27.3989 2.9935 27.4356 3.2564C27.505 3.71236 27.5091 4.18476 27.4438 4.66538C27.1337 7.02737 25.1953 8.77319 22.9141 8.90464C22.5305 8.92518 22.1592 8.89642 21.7674 8.92107C19.8617 9.04841 18.0947 9.8289 16.7195 11.0571C16.6787 11.1105 16.6093 11.1434 16.5359 11.1311C16.4257 11.1146 16.3482 11.0161 16.3645 10.9051C16.3686 10.86 16.389 10.8189 16.4175 10.7901" fill="#5385C3"/>
  </svg>
  