<svg width="31" height="31" viewBox="0 0 31 31" fill="none" xmlns="http://www.w3.org/2000/svg">
  <path d="M26.5429 11.051L20.0332 8.56982L18.3883 10.7397C18.3883 11.6504 18.2257 12.5612 17.9051 13.4393C17.5566 14.4012 17.0269 15.2701 16.3624 16.0042L18.0398 21.8588L21.1669 20.962L19.3734 14.7078L23.8386 13.4254L25.6322 19.6796L28.7593 18.7828L26.5429 11.051Z" fill="#F0AA1E"/>
  <path d="M13.2493 4.35091C13.2818 4.31838 13.3097 4.2905 13.3422 4.25798C13.398 4.20222 13.4584 4.15575 13.5188 4.10464C13.5606 4.06747 13.6024 4.03494 13.6489 3.99777C13.7047 3.95595 13.7651 3.91414 13.8208 3.87232C13.8766 3.83515 13.9277 3.79797 13.9835 3.76545C14.0392 3.73292 14.095 3.7004 14.1507 3.66787C14.2437 3.61676 14.3319 3.56565 14.4295 3.51918C15.4425 3.04524 16.5808 2.99878 17.6356 3.37979C18.7136 3.7701 19.5453 4.57858 20.0053 5.57758L19.7172 5.47071C19.3316 5.32202 18.8948 5.44748 18.6439 5.77738L17.552 7.22243C17.5845 7.27819 17.6124 7.3386 17.6402 7.399C17.933 8.03092 18.1421 8.69537 18.2582 9.36447L19.7079 7.45476L27.3049 10.3495L27.9694 8.61173L21.153 6.01435C20.7302 4.41131 19.5546 3.08706 17.9516 2.50625C16.6645 2.03696 15.2752 2.09736 14.0346 2.67817C13.9649 2.7107 13.9045 2.74787 13.8348 2.78039C13.8255 2.78039 13.8162 2.78039 13.8069 2.78969C13.7697 2.80827 13.7325 2.83615 13.6954 2.85474C13.6257 2.89191 13.556 2.93373 13.4909 2.97555C13.4212 3.01736 13.3562 3.06383 13.2911 3.10565C13.2214 3.15676 13.1471 3.20322 13.0774 3.25898C13.0216 3.3008 12.9705 3.34262 12.9194 3.38908C12.8451 3.44949 12.7754 3.50989 12.7057 3.57494C12.6639 3.61676 12.622 3.65858 12.5756 3.7004C12.5059 3.7701 12.4315 3.84444 12.3665 3.91878C12.3386 3.94666 12.3154 3.97919 12.2921 4.00707C8.83515 3.07312 5.17837 4.92242 3.92846 8.34688C2.89229 11.1952 3.83553 14.2804 6.04726 16.1065L5.21089 18.4065L5.76847 19.596L4.57897 20.1536L5.13655 21.3431L3.94705 21.9007L4.50463 23.0902L3.31512 23.6478L2.74361 25.2229L3.97493 28.6381L7.1113 26.812L10.4289 17.7003C13.3004 17.7235 16.0047 15.9718 17.0408 13.1188C18.3093 9.63396 16.618 5.80061 13.2586 4.34626L13.2493 4.35091ZM13.0635 7.72426C12.7986 8.44911 11.9994 8.82083 11.2746 8.55598C10.5497 8.29113 10.178 7.49193 10.4428 6.76708C10.5915 6.36283 10.9075 6.07475 11.2792 5.94C11.1956 6.24203 11.1259 6.54869 11.098 6.86001C11.0748 7.11557 11.2653 7.34324 11.5208 7.36648C11.7764 7.38971 12.0041 7.1992 12.0273 6.94365C12.0598 6.60445 12.1342 6.2699 12.2457 5.94465C12.9566 6.21415 13.3237 7.00405 13.0635 7.72426Z" fill="#F0AA1E"/>
  </svg>
  