<svg width="42" height="42" viewBox="0 0 42 42" fill="none" xmlns="http://www.w3.org/2000/svg">
  <path fill-rule="evenodd" clip-rule="evenodd" d="M21.0261 18.999C22.7814 18.999 24.2043 20.4415 24.2043 22.2208C24.2043 24.0001 22.7814 25.4425 21.0261 25.4425C19.2707 25.4425 17.8478 24.0001 17.8478 22.2208C17.8478 20.4414 19.2707 18.999 21.0261 18.999ZM27.2758 31.703C26.9383 28.5063 24.2691 26.0165 21.0261 26.0165C17.7829 26.0165 15.1137 28.5063 14.7762 31.703V32.9909C14.7762 33.9289 15.5309 34.6938 16.4561 34.6938H25.5959C26.5212 34.6938 27.2758 33.9289 27.2758 32.9909V31.703ZM30.5247 21.3386C31.8379 21.3386 32.9024 22.4178 32.9024 23.7489C32.9024 25.0801 31.8379 26.1592 30.5247 26.1592C29.2115 26.1592 28.147 25.0801 28.147 23.7489C28.1469 22.4178 29.2115 21.3386 30.5247 21.3386ZM11.5274 21.3386C12.8406 21.3386 13.9051 22.4178 13.9051 23.7489C13.9051 25.0801 12.8406 26.1592 11.5274 26.1592C10.2142 26.1592 9.14969 25.0801 9.14969 23.7489C9.14969 22.4178 10.2142 21.3386 11.5274 21.3386ZM11.5273 26.803C12.9131 26.803 14.1587 27.4105 15.0194 28.3772C14.412 29.3094 14.0093 30.3944 13.8795 31.5702H8.06108C7.70848 31.5702 7.40508 31.4149 7.19586 31.1272C6.98663 30.8395 6.92995 30.4997 7.03425 30.1583C7.62796 28.2148 9.41508 26.803 11.5273 26.803ZM30.5246 26.803C32.637 26.803 34.4241 28.2148 35.0177 30.1583C35.122 30.4997 35.0654 30.8394 34.8561 31.1272C34.6469 31.4149 34.3436 31.5702 33.9909 31.5702H28.1725C28.0427 30.3944 27.6399 29.3095 27.0326 28.3772C27.8933 27.4105 29.139 26.803 30.5246 26.803Z" fill="#F0AA1E"/>
  <path d="M22.1329 13.0008L21.219 10.5708C21.1904 10.4947 21.1217 10.4469 21.041 10.4469C20.9603 10.4469 20.8916 10.4947 20.863 10.5708L19.9491 13.0008C19.9217 13.0739 19.8578 13.1208 19.7805 13.1246L17.2089 13.2511C17.1283 13.2551 17.0619 13.3063 17.0371 13.3837C17.0121 13.4612 17.036 13.542 17.0988 13.5929L19.1056 15.2213C19.1659 15.2702 19.1904 15.3462 19.1701 15.4215L18.4946 17.9297C18.4735 18.0082 18.5012 18.0878 18.5664 18.1356C18.6316 18.1835 18.7151 18.1855 18.7826 18.1409L20.9367 16.7173C21.0014 16.6745 21.0805 16.6745 21.1452 16.7173L23.2994 18.1409C23.3669 18.1855 23.4504 18.1835 23.5156 18.1356C23.5808 18.0878 23.6086 18.0083 23.5874 17.9297L22.912 15.4215C22.8917 15.3462 22.9161 15.2702 22.9764 15.2213L24.9832 13.5929C25.0461 13.542 25.0699 13.4612 25.045 13.3837C25.0201 13.3063 24.9537 13.2551 24.8732 13.2511L22.3016 13.1246C22.2243 13.1208 22.1603 13.0739 22.1329 13.0008Z" fill="#F0AA1E"/>
  <path d="M17.847 11.2685L16.2385 9.80633C16.0526 9.63746 16.0375 9.34841 16.2048 9.16077C16.3721 8.97313 16.6584 8.95791 16.8443 9.12678L18.4527 10.5889C18.6386 10.7578 18.6537 11.0469 18.4864 11.2345C18.3191 11.4222 18.0328 11.4374 17.847 11.2685Z" fill="#F0AA1E"/>
  <path d="M23.6198 10.5975L25.2377 9.12678C25.4235 8.95791 25.7098 8.97313 25.8771 9.16077C26.0444 9.34841 26.0293 9.63746 25.8435 9.80633L24.2256 11.277C24.0397 11.4459 23.7534 11.4307 23.5861 11.243C23.4188 11.0554 23.4339 10.7663 23.6198 10.5975Z" fill="#F0AA1E"/>
  <path d="M21.041 9.20409C21.2914 9.20409 21.4945 8.99911 21.4945 8.74629V7.0662C21.4945 6.81338 21.2914 6.6084 21.041 6.6084C20.7906 6.6084 20.5875 6.81338 20.5875 7.0662V8.74629C20.5875 8.99911 20.7906 9.20409 21.041 9.20409Z" fill="#F0AA1E"/>
  <path d="M12.0888 13.0008L11.1749 10.5708C11.1463 10.4947 11.0777 10.4469 10.997 10.4469C10.9163 10.4469 10.8476 10.4947 10.819 10.5708L9.9051 13.0008C9.87767 13.0738 9.81373 13.1208 9.73641 13.1246L7.16482 13.2511C7.08427 13.2551 7.01789 13.3062 6.99301 13.3837C6.96806 13.4611 6.99193 13.5419 7.05479 13.5929L9.06158 15.2213C9.1219 15.2702 9.14633 15.3462 9.12603 15.4215L8.45058 17.9297C8.42944 18.0082 8.45716 18.0878 8.5224 18.1356C8.58759 18.1835 8.67109 18.1855 8.73854 18.1409L10.8927 16.7173C10.9574 16.6745 11.0365 16.6745 11.1012 16.7173L13.2554 18.1409C13.3229 18.1855 13.4063 18.1835 13.4716 18.1356C13.5368 18.0878 13.5645 18.0083 13.5434 17.9297L12.8679 15.4215C12.8476 15.3462 12.8721 15.2702 12.9324 15.2213L14.9392 13.5929C15.002 13.542 15.0258 13.4612 15.001 13.3837C14.976 13.3063 14.9097 13.2551 14.8291 13.2511L12.2576 13.1246C12.1802 13.1208 12.1163 13.0739 12.0888 13.0008Z" fill="#F0AA1E"/>
  <path d="M32.1469 13.0008L31.233 10.5708C31.2044 10.4947 31.1357 10.4469 31.055 10.4469C30.9743 10.4469 30.9056 10.4947 30.877 10.5708L29.9632 13.0008C29.9357 13.0739 29.8718 13.1208 29.7945 13.1246L27.2229 13.2511C27.1423 13.2551 27.0759 13.3063 27.0511 13.3837C27.0261 13.4612 27.05 13.542 27.1128 13.5929L29.1196 15.2213C29.1799 15.2702 29.2044 15.3462 29.1841 15.4215L28.5086 17.9297C28.4875 18.0082 28.5152 18.0878 28.5805 18.1356C28.6457 18.1835 28.7292 18.1855 28.7966 18.1409L30.9508 16.7173C31.0155 16.6745 31.0946 16.6745 31.1593 16.7173L33.3135 18.1409C33.381 18.1855 33.4644 18.1835 33.5297 18.1356C33.5949 18.0878 33.6226 18.0083 33.6014 17.9297L32.926 15.4215C32.9057 15.3462 32.9301 15.2702 32.9904 15.2213L34.9972 13.5929C35.0601 13.542 35.0839 13.4612 35.059 13.3837C35.0341 13.3063 34.9677 13.2551 34.8872 13.2511L32.3156 13.1246C32.2383 13.1208 32.1743 13.0739 32.1469 13.0008Z" fill="#F0AA1E"/>
  </svg>
  