<svg width="25" height="27" viewBox="0 0 25 27" fill="none" xmlns="http://www.w3.org/2000/svg">
<path d="M4.73615 1.22459C4.14384 0.841852 3.43239 0.726173 2.76508 0.883696L14.4921 12.6108L18.2929 8.80999L4.73615 1.22459Z" fill="white"/>
<path d="M1.30946 1.83691C0.982375 2.27175 0.794128 2.80567 0.794128 3.37046V24.2597C0.794128 24.8246 0.982425 25.3584 1.30946 25.7933L13.2876 13.8151L1.30946 1.83691Z" fill="white"/>
<path d="M23.2532 11.5856L19.8374 9.67432L15.6965 13.8152L19.8376 17.9563L23.2538 16.0449C24.0722 15.5864 24.5608 14.7529 24.5608 13.8152C24.5608 12.8775 24.0722 12.0441 23.2532 11.5856Z" fill="white"/>
<path d="M14.4921 15.0195L2.76581 26.7458C2.95807 26.7911 3.15373 26.8155 3.34939 26.8155C3.83293 26.8155 4.31479 26.6779 4.73622 26.4057L18.293 18.8204L14.4921 15.0195Z" fill="white"/>
</svg>
